<svg xmlns="http://www.w3.org/2000/svg" viewBox="0 0 32 32">
  <defs>
    <radialGradient id="grad1" cx="50%" cy="40%" r="50%" fx="50%" fy="50%">
      <stop offset="0%" style="stop-color:#ff5555;stop-opacity:1" />
      <stop offset="100%" style="stop-color:#880000;stop-opacity:1" />
    </radialGradient>
  </defs>
  <circle cx="16" cy="16" r="14" fill="url(#grad1)" stroke="#5d0016" stroke-width="1.5" />
  <path d="M16 8 C 12 8 10 12 12 16 C 10 18 10 22 14 24 C 18 26 22 24 22 18 C 22 12 20 8 16 8 Z" fill="none" stroke="#330000" stroke-width="1" opacity="0.5"/>
  <path d="M16 8 Q 20 8 20 12 Q 20 16 16 18 Q 12 16 12 12 Q 12 8 16 8 Z" fill="#aa0000" opacity="0.6" />
  <path d="M16 18 Q 14 22 16 24 M 16 18 Q 18 22 16 24" stroke="#330000" stroke-width="0.5" />
</svg>
